<?xml version="1.0" encoding="utf-8"?>
<!-- Generator: Adobe Illustrator 23.0.0, SVG Export Plug-In . SVG Version: 6.00 Build 0)  -->
<svg xmlns="http://www.w3.org/2000/svg" xmlns:xlink="http://www.w3.org/1999/xlink" x="0px" y="0px"
	 width="59" height="59" viewBox="0 0 59 59" style="enable-background:new 0 0 59 59;" xml:space="preserve">


                            <path fill-rule="evenodd" clip-rule="evenodd" d="M38.522 32.2773C41.8899 34.5636 44.2499 37.6611 44.2499 41.7911V49.1661H54.0832V41.7911C54.0832 36.4319 45.307 33.2607 38.522 32.2773Z" fill="#CAD1FE"/>
                            <path d="M22.1253 29.4997C27.5561 29.4997 31.9587 25.0971 31.9587 19.6663C31.9587 14.2355 27.5561 9.83301 22.1253 9.83301C16.6945 9.83301 12.292 14.2355 12.292 19.6663C12.292 25.0971 16.6945 29.4997 22.1253 29.4997Z" fill="#03168C"/>
                            <path fill-rule="evenodd" clip-rule="evenodd" d="M34.417 29.4997C39.85 29.4997 44.2504 25.0993 44.2504 19.6663C44.2504 14.2334 39.85 9.83301 34.417 9.83301C33.2616 9.83301 32.18 10.0788 31.1475 10.423C33.1879 12.9551 34.417 16.1755 34.417 19.6663C34.417 23.1572 33.1879 26.3776 31.1475 28.9097C32.18 29.2538 33.2616 29.4997 34.417 29.4997Z" fill="#CAD1FE"/>
                            <path fill-rule="evenodd" clip-rule="evenodd" d="M22.1252 31.958C15.5614 31.958 2.4585 35.2522 2.4585 41.7913V49.1663H41.7918V41.7913C41.7918 35.2522 28.6889 31.958 22.1252 31.958Z" fill="#CAD1FE"/>
                        
</svg>
